<?xml version="1.0" standalone="no"?>
<!DOCTYPE svg PUBLIC "-//W3C//DTD SVG 20010904//EN"
 "http://www.w3.org/TR/2001/REC-SVG-20010904/DTD/svg10.dtd">
<svg version="1.0" xmlns="http://www.w3.org/2000/svg"
 width="2880.000000pt" height="2880.000000pt" viewBox="0 0 2880.000000 2880.000000"
 preserveAspectRatio="xMidYMid meet">
<metadata>
Created by potrace 1.16, written by Peter Selinger 2001-2019
</metadata>
<g transform="translate(0.000000,2880.000000) scale(0.100000,-0.100000)"
fill="#ffffff" stroke="none">
<path d="M11910 22530 c-2859 -1585 -2653 -1470 -2647 -1476 3 -3 614 214
1360 481 l1355 485 2549 0 2549 0 1354 -485 c745 -267 1358 -484 1363 -482 14
4 -5250 2917 -5270 2916 -10 0 -1186 -648 -2613 -1439z"/>
<path d="M12390 20805 l0 -665 2115 0 2115 0 0 665 0 665 -2115 0 -2115 0 0
-665z"/>
<path d="M17110 20786 c0 -377 2 -686 5 -686 3 0 427 -126 943 -279 515 -154
949 -283 965 -286 l27 -7 -2 642 -3 643 -950 324 c-522 178 -958 326 -967 329
-17 5 -18 -32 -18 -680z"/>
<path d="M10948 21122 l-958 -327 0 -644 c0 -510 3 -642 13 -639 6 3 443 133
969 289 l958 284 0 683 c0 539 -3 682 -12 681 -7 0 -444 -147 -970 -327z"/>
<path d="M11525 19273 l-980 -264 -3490 -1601 c-1919 -880 -3492 -1602 -3494
-1604 -2 -2 -2 -6 0 -8 2 -2 1140 320 2529 715 l2525 719 5910 0 5911 0 2514
-715 c1383 -394 2524 -718 2535 -721 14 -4 17 -3 10 4 -5 6 -1576 729 -3490
1608 l-3480 1597 -995 268 -995 269 -2015 -1 -2015 -1 -980 -265z"/>
<path d="M10532 12004 l3 -4117 45 -14 c1107 -339 2082 -513 3270 -585 265
-16 1125 -16 1390 0 1202 73 2287 270 3345 609 l120 39 3 4092 2 4092 -4090 0
-4090 0 2 -4116z m3258 1231 l0 -865 870 0 870 0 0 865 0 865 290 0 290 0 -2
-1982 -3 -1983 -287 -3 -288 -2 0 870 0 870 -870 0 -870 0 0 -870 0 -870 -287
2 -288 3 -3 1983 -2 1982 290 0 290 0 0 -865z"/>
<path d="M19460 12170 l0 -3952 27 7 c14 3 135 53 267 110 1372 589 2600 1379
3709 2386 l197 180 0 1954 0 1954 -127 40 c-71 22 -1008 315 -2083 651 -1075
336 -1963 613 -1972 616 -17 5 -18 -187 -18 -3946z m2239 1944 c218 -31 504
-115 738 -215 135 -57 350 -167 436 -222 l58 -37 -26 -43 c-14 -23 -51 -86
-81 -139 -31 -54 -60 -98 -64 -98 -4 0 -45 18 -91 39 -284 132 -740 252 -959
253 -182 1 -301 -43 -412 -153 -124 -124 -208 -345 -242 -640 -35 -294 -30
-723 10 -1011 37 -270 121 -492 223 -595 90 -90 224 -142 361 -143 71 0 313
35 415 61 200 50 489 147 639 214 32 14 61 24 63 21 9 -9 163 -279 160 -282
-13 -12 -185 -108 -286 -158 -294 -147 -747 -295 -1005 -327 -115 -14 -273 -7
-361 16 -160 43 -314 147 -421 286 -167 217 -288 611 -324 1052 -15 190 -13
657 5 838 75 786 340 1211 803 1289 80 13 250 11 361 -6z"/>
<path d="M7693 15417 l-2093 -672 0 -2001 0 -2001 151 -134 c1153 -1020 2415
-1802 3838 -2380 107 -44 198 -79 203 -79 4 0 8 1787 8 3970 0 2184 -3 3970
-7 3969 -5 0 -950 -303 -2100 -672z m792 -1241 c105 -19 242 -59 268 -78 16
-12 11 -28 -67 -231 -46 -120 -86 -221 -89 -223 -3 -3 -56 6 -119 20 -206 45
-263 51 -513 51 -206 -1 -258 -4 -369 -24 -283 -50 -495 -153 -599 -289 -60
-80 -68 -115 -65 -301 l3 -163 150 -54 c423 -154 848 -342 1235 -547 186 -98
256 -160 314 -278 60 -122 67 -176 60 -474 -6 -301 -17 -410 -50 -517 -43
-134 -159 -282 -277 -352 -25 -14 -87 -40 -139 -58 -84 -28 -108 -32 -242 -36
-90 -3 -184 0 -240 8 -236 32 -611 166 -956 341 -138 70 -334 182 -358 204
-11 10 1 38 64 151 43 76 79 141 81 143 2 2 60 -23 130 -57 227 -108 510 -211
757 -274 153 -39 342 -49 449 -24 126 30 217 91 253 171 21 47 22 66 26 310
l3 260 -155 88 c-192 109 -635 333 -835 422 -82 37 -244 105 -359 152 -225 91
-266 113 -339 192 -86 92 -92 114 -92 356 0 206 1 211 27 279 95 235 342 463
690 636 215 107 438 171 708 206 145 18 524 12 645 -10z"/>
<path d="M11690 6475 l0 -55 -275 0 -275 0 0 -85 0 -85 380 0 380 0 0 140 0
140 -105 0 -105 0 0 -55z"/>
<path d="M7548 6166 l-137 -53 -143 4 c-106 4 -162 1 -217 -11 -97 -20 -188
-71 -226 -125 -27 -38 -30 -52 -33 -132 l-4 -89 106 0 106 0 0 59 c0 53 3 62
30 84 77 65 335 61 403 -7 14 -14 17 -36 17 -116 l0 -99 -32 10 c-18 5 -81 13
-140 16 -185 10 -334 -26 -416 -101 -63 -57 -72 -85 -72 -218 1 -161 31 -218
145 -269 41 -19 73 -24 178 -27 l127 -4 0 81 0 81 -72 0 c-96 0 -142 13 -156
46 -7 13 -12 58 -12 98 0 59 4 76 19 90 68 62 344 62 412 0 17 -16 19 -33 19
-206 l0 -188 105 0 105 0 0 418 c0 401 -1 418 -20 450 -11 18 -18 37 -15 42 3
5 35 18 71 30 52 18 64 25 59 39 -31 85 -59 151 -64 150 -3 0 -68 -24 -143
-53z"/>
<path d="M12893 6099 l-153 -121 0 -58 0 -58 50 -12 c58 -14 94 -39 118 -83
14 -27 17 -67 20 -240 2 -115 1 -219 -2 -232 -11 -42 -109 -60 -166 -30 l-30
16 0 179 0 180 -105 0 -105 0 0 -179 c0 -209 1 -206 -95 -206 -102 0 -95 -34
-95 441 l0 414 -105 0 -105 0 0 -435 c0 -473 -1 -462 57 -517 15 -15 51 -37
78 -50 44 -20 65 -23 170 -22 80 0 133 5 160 15 36 13 45 13 100 -4 47 -15 82
-18 162 -15 89 4 110 9 166 36 45 23 73 44 93 74 l29 41 0 261 c0 248 -1 264
-23 318 -15 36 -39 71 -68 98 -25 23 -44 43 -42 44 2 2 43 33 91 69 l89 66
-59 64 c-32 36 -62 65 -68 66 -5 0 -79 -54 -162 -120z"/>
<path d="M17858 6165 l-137 -52 -138 4 c-207 8 -327 -23 -415 -105 -55 -51
-68 -86 -68 -184 l0 -68 105 0 105 0 0 58 c0 48 4 62 23 80 60 57 277 69 374
21 l48 -24 3 -107 3 -107 -33 10 c-58 17 -230 22 -318 10 -108 -16 -176 -42
-230 -88 -63 -54 -80 -98 -80 -217 0 -117 12 -163 56 -215 54 -63 117 -84 267
-89 l127 -4 0 80 0 80 -96 4 c-91 4 -98 6 -120 32 -21 23 -24 37 -24 105 0 64
3 81 19 95 68 62 344 62 412 0 17 -16 19 -33 19 -206 l0 -188 105 0 105 0 0
418 c0 398 -1 419 -20 455 l-20 37 33 13 c17 8 49 19 70 26 20 7 37 16 37 19
0 15 -63 162 -69 161 -3 -1 -68 -25 -143 -54z"/>
<path d="M8140 6104 c-169 -45 -268 -147 -294 -306 l-7 -36 55 -16 c30 -9 59
-16 65 -16 16 0 15 -2 -23 -59 -48 -71 -56 -123 -56 -366 l0 -215 170 0 170 0
0 85 0 85 -66 0 -66 0 4 143 c3 121 6 147 24 177 25 44 73 76 123 85 33 5 40
11 45 37 3 17 6 45 6 63 l0 33 -106 26 c-59 14 -109 28 -112 31 -9 9 30 44 74
65 94 46 253 33 324 -26 60 -51 60 -49 60 -444 l0 -360 105 0 105 0 0 368 c0
410 -3 434 -64 513 -42 55 -130 108 -215 131 -82 21 -245 22 -321 2z"/>
<path d="M9140 6104 c-80 -22 -151 -65 -185 -113 -27 -39 -30 -51 -33 -137
l-4 -94 106 0 106 0 0 63 c0 50 4 68 19 81 31 28 91 45 161 46 84 0 137 -15
172 -50 l28 -28 0 -391 0 -391 106 0 105 0 -3 418 -3 417 -25 44 c-32 57 -81
96 -155 123 -80 29 -310 36 -395 12z"/>
<path d="M11301 6104 c-80 -21 -167 -72 -211 -122 -46 -52 -82 -141 -78 -191
3 -34 5 -36 63 -49 33 -8 62 -16 64 -18 3 -3 -7 -17 -21 -32 -61 -64 -63 -75
-66 -349 l-3 -253 105 0 106 0 0 226 c0 188 3 232 16 260 21 44 59 71 123 86
l51 11 0 41 c0 23 3 50 6 61 5 19 -5 23 -110 49 -107 26 -115 29 -105 47 5 10
33 31 62 46 46 24 64 27 147 28 83 0 102 -3 144 -25 57 -29 84 -61 96 -116 5
-21 10 -191 10 -376 l0 -338 100 0 100 0 0 378 c0 425 -2 437 -70 515 -45 51
-132 100 -215 122 -74 19 -241 19 -314 -1z"/>
<path d="M13545 6107 c-165 -42 -235 -127 -235 -286 l0 -61 105 0 105 0 0 50
c0 104 42 135 185 135 102 0 131 -6 168 -36 l27 -20 0 -400 0 -399 105 0 105
0 0 417 c0 405 -1 418 -21 461 -25 51 -78 92 -158 123 -46 18 -80 23 -196 25
-90 2 -158 -1 -190 -9z"/>
<path d="M15583 6105 c-119 -26 -203 -78 -240 -149 -9 -17 -18 -67 -21 -113
l-5 -83 107 0 106 0 0 53 c0 30 6 61 15 74 27 39 99 58 215 58 116 0 188 -19
215 -58 22 -31 22 -212 0 -203 -79 30 -315 32 -420 3 -77 -21 -150 -62 -183
-103 -41 -50 -56 -117 -50 -226 7 -112 33 -169 101 -215 59 -40 122 -53 247
-53 l100 0 0 80 0 80 -72 1 c-110 2 -130 9 -150 49 -18 35 -24 132 -12 165 4
9 25 26 48 38 36 20 56 22 176 22 120 0 140 -2 176 -22 23 -12 44 -29 48 -38
3 -9 6 -97 6 -196 l0 -179 105 0 105 0 0 398 c0 249 -4 411 -11 435 -23 84
-120 153 -254 182 -86 18 -268 18 -352 0z"/>
<path d="M19490 6105 c-174 -48 -299 -183 -288 -311 3 -37 4 -38 58 -51 87
-22 86 -21 63 -46 -52 -56 -58 -82 -61 -264 l-4 -173 -54 0 -54 0 0 -85 0 -85
105 0 c123 0 165 13 195 62 18 30 20 50 20 213 0 217 11 253 82 285 24 11 50
20 59 20 19 0 29 28 29 87 l0 41 -106 25 c-58 14 -108 28 -111 31 -11 10 28
44 76 68 38 19 62 23 141 23 106 -1 150 -16 205 -75 l30 -31 3 -375 3 -374
104 0 105 0 0 378 c-1 406 -2 415 -55 493 -34 48 -129 113 -199 135 -73 23
-275 28 -346 9z"/>
<path d="M20490 6104 c-80 -22 -151 -65 -185 -113 -27 -39 -30 -51 -33 -137
l-4 -94 106 0 106 0 0 63 c0 90 32 115 154 124 97 8 168 -10 201 -49 l25 -30
0 -389 0 -389 105 0 105 0 0 396 c0 255 -4 411 -11 439 -22 88 -112 158 -237
184 -75 16 -266 13 -332 -5z"/>
<path d="M9932 5703 c4 -457 2 -444 79 -528 56 -60 123 -87 235 -93 109 -6
209 14 303 58 34 17 65 30 67 30 2 0 4 -18 4 -40 l0 -40 105 0 105 0 0 510 0
510 -105 0 -105 0 0 -353 0 -354 -44 -32 c-25 -17 -80 -48 -123 -68 -141 -67
-255 -55 -294 31 -17 38 -19 72 -19 409 l0 367 -106 0 -105 0 3 -407z"/>
<path d="M14350 5600 l0 -510 175 0 175 0 0 80 0 80 -70 0 -70 0 0 430 0 430
-105 0 -105 0 0 -510z"/>
<path d="M14810 5600 l0 -510 175 0 175 0 0 80 0 80 -70 0 -70 0 0 430 0 430
-105 0 -105 0 0 -510z"/>
<path d="M18190 6030 l0 -80 75 0 c66 0 75 -2 75 -18 0 -10 -27 -64 -61 -121
-86 -146 -89 -157 -89 -340 0 -143 2 -160 24 -206 62 -132 195 -192 406 -183
174 8 278 62 335 173 l30 59 3 398 3 398 -106 0 -105 0 0 -372 c0 -335 -2
-377 -18 -408 -23 -46 -70 -71 -145 -77 -77 -6 -138 9 -180 47 l-32 28 0 159
0 159 57 95 c74 121 88 164 95 277 l6 92 -187 0 -186 0 0 -80z"/>
<path d="M21280 5681 c0 -279 4 -440 11 -458 23 -63 90 -110 188 -133 67 -16
222 -8 274 13 34 15 40 15 75 0 21 -9 78 -18 133 -21 115 -5 211 18 270 67 70
58 69 50 69 530 l0 431 -105 0 -105 0 0 -415 0 -414 -32 -17 c-36 -18 -117
-15 -143 6 -13 11 -15 60 -15 356 l0 344 -105 0 -105 0 0 -338 c0 -315 -1
-340 -18 -355 -28 -25 -101 -32 -145 -14 l-37 16 0 415 0 416 -105 0 -105 0 0
-429z"/>
<path d="M16380 5850 l0 -130 265 0 265 0 0 85 0 85 -155 0 -155 0 0 45 0 45
-110 0 -110 0 0 -130z"/>
<path d="M16380 5345 l0 -135 265 0 265 0 0 85 0 85 -155 0 -155 0 0 50 0 50
-110 0 -110 0 0 -135z"/>
<path d="M17660 4910 l0 -80 50 0 50 0 0 -95 0 -95 105 0 105 0 0 175 0 175
-155 0 -155 0 0 -80z"/>
<path d="M12730 4305 l0 -85 210 0 210 0 0 45 0 45 -165 0 -165 0 0 40 0 40
-45 0 -45 0 0 -85z"/>
<path d="M15330 4357 c0 -25 9 -42 36 -68 70 -67 69 -59 72 -421 l3 -328 45 0
44 0 0 325 c0 348 -3 370 -52 422 l-21 23 116 0 117 0 0 40 0 40 -180 0 -180
0 0 -33z"/>
<path d="M16270 4355 c0 -27 7 -39 30 -57 17 -12 41 -44 55 -72 l25 -50 0
-318 0 -318 45 0 46 0 -3 344 -3 343 -28 39 -27 39 110 3 110 3 0 39 0 40
-180 0 -180 0 0 -35z"/>
<path d="M17660 4350 l0 -40 -180 0 -180 0 0 -45 0 -45 225 0 225 0 0 85 0 85
-45 0 -45 0 0 -40z"/>
<path d="M20600 4350 l0 -40 -175 0 -175 0 0 -45 0 -45 225 0 225 0 0 85 0 85
-50 0 -50 0 0 -40z"/>
<path d="M10220 4265 l0 -45 225 0 225 0 0 45 0 45 -225 0 -225 0 0 -45z"/>
<path d="M18305 4174 c-51 -21 -79 -25 -180 -27 -104 -2 -127 -5 -168 -26 -59
-29 -87 -70 -87 -128 l0 -43 49 0 50 0 3 38 c2 31 9 40 38 55 47 24 193 21
233 -6 25 -16 27 -22 27 -87 l0 -70 -42 7 c-24 5 -79 8 -124 7 -95 0 -157 -21
-200 -65 -25 -26 -29 -38 -32 -102 -5 -128 40 -179 164 -185 l74 -4 0 41 0 41
-48 0 c-73 0 -92 18 -92 91 0 60 0 60 38 76 51 23 186 23 230 0 l32 -18 0
-114 0 -115 50 0 50 0 0 245 c0 201 -3 251 -15 276 -15 29 -15 29 12 39 64 23
63 21 46 63 -18 43 -26 44 -108 11z"/>
<path d="M8390 3845 l0 -305 50 0 c49 0 50 1 50 31 0 17 3 29 8 27 185 -95
326 -87 383 22 17 31 19 61 19 282 l0 248 -44 0 -45 0 -3 -234 c-3 -261 -4
-263 -75 -287 -42 -13 -110 6 -190 54 l-53 31 0 218 0 218 -50 0 -50 0 0 -305z"/>
<path d="M9030 3845 l0 -305 45 0 45 0 0 88 0 87 106 113 106 112 54 -37 54
-38 0 -162 0 -163 45 0 45 0 0 190 0 190 -64 42 -64 43 24 28 c19 22 31 27 69
27 l45 0 0 45 0 45 -66 0 -66 0 -143 -147 -144 -148 -1 148 0 147 -45 0 -45 0
0 -305z"/>
<path d="M9760 4141 c-87 -28 -120 -68 -120 -146 l0 -45 45 0 c41 0 45 2 45
24 0 62 38 86 135 86 69 0 118 -17 129 -45 3 -9 6 -120 6 -246 l0 -229 45 0
45 0 0 251 c0 284 -2 294 -75 332 -31 16 -62 21 -135 24 -52 1 -106 -1 -120
-6z"/>
<path d="M10330 4141 c-83 -26 -118 -64 -127 -141 l-6 -50 52 0 51 0 0 35 c0
52 42 75 138 75 82 0 129 -18 137 -53 3 -12 4 -94 3 -181 l-3 -159 -28 -21
c-39 -29 -158 -34 -207 -9 -29 15 -36 24 -38 56 l-3 37 -51 0 -51 0 7 -47 c8
-62 31 -92 92 -123 68 -34 214 -36 286 -3 83 38 88 55 88 290 l0 202 -30 35
c-41 46 -104 66 -204 65 -45 0 -92 -4 -106 -8z"/>
<path d="M10790 3845 l0 -305 50 0 50 0 0 189 0 190 97 70 c87 64 101 71 143
71 80 0 80 0 80 -278 l0 -242 45 0 45 0 0 255 c0 213 -3 261 -16 286 -22 43
-83 69 -164 69 -64 0 -68 -2 -142 -55 -42 -30 -79 -55 -82 -55 -3 0 -6 25 -6
55 l0 55 -50 0 -50 0 0 -305z"/>
<path d="M11420 4068 c1 -103 12 -153 41 -184 13 -13 17 -24 10 -24 -7 0 -21
-21 -33 -47 -24 -55 -21 -156 6 -198 56 -85 265 -111 394 -49 81 40 82 43 82
334 l0 250 -50 0 -50 0 0 -245 0 -245 -26 -16 c-33 -22 -159 -31 -208 -14 -54
18 -66 34 -66 94 0 68 17 84 98 92 l62 7 0 38 0 39 -51 0 c-43 0 -55 5 -80 29
-28 28 -29 33 -29 125 l0 96 -50 0 -50 0 0 -82z"/>
<path d="M12140 4141 c-87 -28 -120 -68 -120 -146 l0 -45 45 0 c41 0 45 2 45
24 0 62 38 86 135 86 69 0 118 -17 129 -45 3 -9 6 -120 6 -246 l0 -229 45 0
45 0 0 251 c0 284 -2 294 -75 332 -31 16 -62 21 -135 24 -52 1 -106 -1 -120
-6z"/>
<path d="M12715 4137 c-89 -30 -125 -71 -125 -144 l0 -43 49 0 50 0 3 38 c2
31 9 40 38 55 47 24 193 21 233 -6 25 -16 27 -22 27 -87 l0 -70 -42 7 c-24 5
-79 8 -124 7 -95 0 -157 -21 -200 -65 -26 -27 -29 -38 -32 -107 -3 -68 -1 -81
20 -112 33 -49 80 -70 156 -70 l62 0 0 40 0 40 -48 0 c-73 0 -92 18 -92 90 0
57 1 60 33 77 23 12 56 17 117 17 61 0 94 -5 118 -17 l32 -18 0 -114 0 -115
50 0 50 0 0 248 c0 286 -3 296 -88 335 -58 26 -224 34 -287 14z"/>
<path d="M13212 4036 c2 -96 6 -119 24 -143 l20 -28 -23 -34 c-19 -28 -23 -47
-23 -108 0 -99 16 -127 88 -161 49 -22 71 -26 152 -26 114 -1 187 21 225 65
l25 31 0 259 0 259 -45 0 -45 0 -2 -241 -3 -242 -27 -20 c-53 -40 -211 -35
-254 8 -26 26 -32 74 -14 119 10 27 59 46 118 46 31 0 32 2 32 40 l0 40 -48 0
c-86 0 -112 41 -112 178 l0 72 -46 0 -46 0 4 -114z"/>
<path d="M13840 3845 l0 -305 90 0 90 0 0 40 0 40 -45 0 -45 0 0 265 0 265
-45 0 -45 0 0 -305z"/>
<path d="M14110 3845 l0 -305 50 0 50 0 0 190 0 189 99 71 c87 62 104 70 143
70 78 0 78 -1 78 -278 l0 -242 45 0 45 0 0 255 c0 213 -3 261 -16 286 -22 43
-83 69 -164 69 -64 0 -68 -2 -142 -55 -42 -30 -79 -55 -82 -55 -3 0 -6 25 -6
55 l0 55 -50 0 -50 0 0 -305z"/>
<path d="M14859 4134 c-30 -9 -59 -27 -78 -49 l-31 -36 0 -254 0 -255 45 0 45
0 0 83 c0 45 4 87 8 93 15 23 56 36 128 41 l74 6 0 45 0 45 -82 -6 c-46 -4
-93 -9 -105 -13 -23 -6 -23 -5 -23 90 0 92 1 96 26 113 19 12 54 18 119 21 77
4 100 1 139 -16 l46 -21 0 -240 0 -241 45 0 45 0 0 256 0 256 -37 38 c-28 27
-52 40 -91 49 -72 15 -217 13 -273 -5z"/>
<path d="M15702 3893 c3 -252 4 -259 26 -291 37 -51 75 -66 167 -66 69 -1 89
4 148 31 l67 32 0 -30 c0 -28 1 -29 50 -29 l50 0 0 305 0 305 -50 0 -50 0 0
-218 0 -218 -61 -36 c-34 -20 -83 -42 -110 -48 -42 -10 -53 -9 -86 7 -60 29
-63 42 -63 291 l0 222 -45 0 -46 0 3 -257z"/>
<path d="M16750 4131 c-77 -27 -110 -67 -110 -131 l0 -50 45 0 c43 0 45 1 45
30 0 36 32 68 77 76 59 11 177 0 206 -19 25 -16 27 -22 27 -88 l0 -70 -47 8
c-27 4 -85 7 -129 7 -101 -2 -183 -34 -208 -83 -21 -40 -21 -162 0 -202 21
-42 83 -69 162 -69 l62 0 0 40 0 40 -50 0 c-41 0 -56 5 -75 25 -25 24 -33 73
-19 110 16 40 134 64 219 45 80 -18 85 -26 85 -152 l0 -108 51 0 50 0 -3 253
c-3 287 -4 289 -86 329 -67 32 -223 37 -302 9z"/>
<path d="M17262 4031 c3 -106 5 -122 25 -143 l22 -23 -25 -28 c-22 -25 -24
-37 -24 -119 0 -90 0 -91 34 -123 45 -42 111 -60 221 -59 75 0 100 5 147 26
87 40 88 42 88 338 l0 250 -45 0 -45 0 0 -235 c0 -235 0 -236 -24 -260 -43
-42 -202 -47 -255 -7 -22 16 -27 29 -29 74 -4 70 13 86 96 94 l62 7 0 38 0 39
-51 0 c-43 0 -55 5 -80 29 -28 28 -29 33 -29 125 l0 96 -46 0 -46 0 4 -119z"/>
<path d="M18600 4135 c-68 -21 -102 -62 -108 -129 -8 -100 -11 -97 183 -194
159 -79 175 -89 175 -113 0 -14 -11 -36 -26 -50 -21 -20 -37 -24 -97 -27 -84
-3 -116 9 -137 55 -13 29 -19 33 -57 33 -42 0 -43 -1 -43 -32 0 -47 32 -94 82
-120 36 -19 58 -23 143 -23 85 0 107 4 143 23 61 32 82 72 82 153 0 46 -5 70
-14 79 -8 6 -88 48 -178 92 -90 44 -164 81 -166 83 -2 2 -1 18 3 35 9 40 52
60 128 60 96 0 137 -25 137 -84 0 -24 3 -26 46 -26 l46 0 -4 55 c-6 69 -40
109 -112 130 -61 18 -166 18 -226 0z"/>
<path d="M19062 3903 c3 -229 5 -251 24 -283 64 -109 201 -117 387 -22 4 2 7
-10 7 -27 0 -30 1 -31 45 -31 l45 0 0 305 0 305 -45 0 -45 0 -2 -217 -3 -218
-50 -33 c-71 -47 -143 -66 -194 -52 -69 18 -71 25 -71 287 l0 233 -51 0 -50 0
3 -247z"/>
<path d="M19777 4136 c-69 -25 -107 -78 -107 -151 l0 -35 50 0 50 0 0 34 c0
26 7 40 28 56 24 19 37 21 108 18 129 -5 124 7 124 -280 l0 -238 45 0 45 0 0
261 0 262 -34 31 c-18 18 -51 37 -73 44 -53 16 -188 15 -236 -2z"/>
<path d="M20370 4141 c-93 -30 -120 -67 -120 -164 0 -49 4 -68 18 -80 10 -9
88 -50 175 -91 l157 -75 0 -36 c0 -49 -42 -75 -125 -75 -77 0 -129 24 -133 63
-3 25 -7 27 -48 27 l-44 0 0 -41 c0 -61 54 -112 135 -129 115 -24 251 7 290
66 22 34 31 125 16 162 -10 25 -40 43 -182 111 -162 79 -169 84 -169 112 0 48
47 71 141 67 91 -4 119 -21 119 -75 l0 -33 51 0 52 0 -6 51 c-12 102 -69 141
-212 146 -49 1 -101 -1 -115 -6z"/>
<path d="M18200 3440 c0 -39 1 -40 35 -40 l35 0 0 -60 0 -60 50 0 50 0 0 100
0 100 -85 0 -85 0 0 -40z"/>
</g>
</svg>
